<?xml version="1.0" encoding="UTF-8" standalone="no"?>
<!-- Created with Inkscape (http://www.inkscape.org/) -->

<svg
   width="185.99405mm"
   height="51.955044mm"
   viewBox="0 0 212.994 59.497133"
   version="1.1"
   id="SVGRoot"
   sodipodi:docname="LegalEase.svg"
   inkscape:version="1.2.2 (732a01da63, 2022-12-09, custom)"
   inkscape:export-filename="../69109fb7/LegalEase_logo.svg"
   inkscape:export-xdpi="25.4"
   inkscape:export-ydpi="25.4"
   xmlns:inkscape="http://www.inkscape.org/namespaces/inkscape"
   xmlns:sodipodi="http://sodipodi.sourceforge.net/DTD/sodipodi-0.dtd"
   xmlns="http://www.w3.org/2000/svg"
   xmlns:svg="http://www.w3.org/2000/svg">
  <sodipodi:namedview
     id="namedview1895"
     pagecolor="#ffffff"
     bordercolor="#666666"
     borderopacity="1.0"
     inkscape:showpageshadow="2"
     inkscape:pageopacity="0.0"
     inkscape:pagecheckerboard="0"
     inkscape:deskcolor="#d1d1d1"
     inkscape:document-units="mm"
     showgrid="false"
     inkscape:zoom="0.66903058"
     inkscape:cx="44.840999"
     inkscape:cy="440.93649"
     inkscape:window-width="1685"
     inkscape:window-height="934"
     inkscape:window-x="0"
     inkscape:window-y="34"
     inkscape:window-maximized="0"
     inkscape:current-layer="text3988"
     showguides="true">
    <sodipodi:guide
       position="39.46311,14.864765"
       orientation="0,-1"
       id="guide4125"
       inkscape:locked="false" />
  </sodipodi:namedview>
  <defs
     id="defs1890">
    <rect
       x="252.08502"
       y="43.741962"
       width="406.34109"
       height="114.915"
       id="rect4366" />
    <rect
       x="180.21539"
       y="471.7572"
       width="523.83362"
       height="186.75758"
       id="rect3990" />
  </defs>
  <g
     inkscape:label="Layer 1"
     inkscape:groupmode="layer"
     id="layer1"
     transform="translate(-49.518251,-32.117452)">
    <g
       id="g4362"
       transform="translate(13.499974,3.7710453)">
      <g
         id="layer1-3"
         transform="matrix(0.29484312,0,0,0.29484312,33.821422,2.782955)">
        <g
           id="g4460"
           transform="matrix(1.1295673,0,0,1.1295673,4.5177979,-12.890938)">
          <rect
             style="fill:#000080;stroke-width:0.30048"
             id="rect111"
             width="156"
             height="156"
             x="43.131653"
             y="99.49192" />
        </g>
        <rect
           style="display:none;fill:#004174;fill-opacity:1;stroke-width:0.337174"
           id="rect235"
           width="156.00589"
           height="39"
           x="43.131653"
           y="216.49191" />
        <rect
           style="display:none;fill:#38bf39;fill-opacity:1;stroke-width:0.337174"
           id="rect244"
           width="156.00589"
           height="39"
           x="43.524689"
           y="177.49191" />
        <rect
           style="display:none;fill:#ff6c5f;fill-opacity:1;stroke-width:0.337174"
           id="rect2247"
           width="156.00589"
           height="39"
           x="43.524689"
           y="138.49191" />
        <rect
           style="display:none;fill:#ffbf01;fill-opacity:1;stroke-width:0.337174"
           id="rect3767"
           width="156.00589"
           height="39"
           x="43.524689"
           y="99.49192" />
      </g>
      <g
         id="layer2"
         transform="matrix(0.29484312,0,0,0.29484312,46.538493,32.117463)">
        <g
           id="g4466"
           transform="translate(19.299143,10.55254)">
          <g
             aria-label="Le"
             transform="matrix(0.36713591,0,0,0.36713591,-84.222869,-141.48796)"
             id="text325"
             style="font-size:40px;line-height:1.25;white-space:pre;shape-inside:url(#rect327)">
            <g
               id="g485"
               transform="matrix(11.728813,0,0,11.883116,-2873.9602,-6170.3078)">
              <path
                 d="m 270.58261,582.63141 v -26.34765 h 5.76172 v 21.89453 h 12.03125 v 4.45312 z"
                 style="font-weight:bold;font-family:'Liberation Mono';-inkscape-font-specification:'Liberation Mono, Bold';fill:#ffffff"
                 id="path381" />
            </g>
          </g>
          <rect
             style="fill:#ffbf01;fill-opacity:1;stroke-width:0.209159"
             id="rect4261"
             width="19.406"
             height="19.406"
             x="112.63034"
             y="115.59487" />
        </g>
      </g>
      <g
         aria-label="LegalEase"
         transform="matrix(0.64827469,0,0,0.64827469,-6.9609885,-261.12853)"
         id="text3988"
         style="font-size:40px;line-height:1.25;font-family:Arial;-inkscape-font-specification:'Arial, Normal';white-space:pre;shape-inside:url(#rect3990)">
        <g
           aria-label="LegalEase"
           transform="matrix(0.92183778,0,0,0.92183778,-54.40437,432.09997)"
           id="text4364"
           style="font-family:'Nimbus Sans';-inkscape-font-specification:'Nimbus Sans, Normal';shape-inside:url(#rect4366)">
          <path
             d="m 261.28594,48.742187 h -6 v 29.16 h 19.96 v -5 h -13.96 z"
             style="font-weight:bold"
             id="path4372" />
          <path
             d="m 297.44581,68.862187 c 0.04,-0.48 0.04,-0.68 0.04,-0.96 0,-2.16 -0.32,-4.16 -0.84,-5.68 -1.44,-3.92 -4.92,-6.28 -9.28,-6.28 -6.2,0 -10,4.48 -10,11.720001 0,6.92 3.76,11.159999 9.88,11.159999 4.84,0 8.76,-2.72 10,-7 h -5.52 c -0.68,1.72 -2.24,2.72 -4.28,2.72 -1.6,0 -2.88,-0.68 -3.68,-1.879999 -0.52,-0.800001 -0.72,-1.760001 -0.8,-3.800001 z m -14.4,-3.72 c 0.36,-3.32 1.76,-4.92 4.24,-4.92 2.56,0 4.08,1.72 4.36,4.92 z"
             style="font-weight:bold"
             id="path4374" />
          <path
             d="m 314.76578,56.302187 v 3.32 c -1.56,-2.52 -3.28,-3.68 -5.56,-3.68 -1.92,0 -4.04,0.96 -5.52,2.52 -2.16,2.24 -3.28,5.36 -3.28,9.16 0,6.64 3.52,11.2 8.68,11.2 2.32,0 3.72,-0.76 5.68,-3.12 v 2.92 c 0,2.6 -1.84,4.4 -4.48,4.4 -2,0 -3.24,-0.88 -3.68,-2.52 h -5.76 c 0.04,1.68 0.64,2.84 2.12,4.04 1.72,1.400001 4.08,2.08 7.12,2.08 6.24,0 10,-3 10,-8 v -22.32 z m -4.52,4.32 c 2.64,0 4.6,2.92 4.6,6.92 0,3.92 -1.88,6.6 -4.68,6.6 -2.44,0 -4.16,-2.68 -4.16,-6.6 0,-4.08 1.72,-6.92 4.24,-6.92 z"
             style="font-weight:bold"
             id="path4376" />
          <path
             d="m 344.08567,77.222187 c -0.96,-0.919999 -1.28,-1.559999 -1.28,-2.639999 V 62.582187 c 0,-4.4 -3,-6.64 -8.84,-6.64 -5.84,0 -8.88,2.48 -9.24,7.48 h 5.4 c 0.28,-2.24 1.2,-2.96 3.96,-2.96 2.16,0 3.24,0.72 3.24,2.16 0,0.72 -0.36,1.32 -0.96,1.680001 -0.76,0.399999 -0.76,0.399999 -3.52,0.839999 l -2.24,0.4 c -4.28,0.72 -6.36,2.92 -6.36,6.8 0,3.88 2.6,6.48 6.56,6.48 2.4,0 4.56,-1 6.56,-3.08 0,1.12 0.12,1.52 0.64,2.16 h 6.08 z m -6.76,-8 c 0,3.24 -1.6,5.080001 -4.44,5.080001 -1.88,0 -3.04,-1 -3.04,-2.600001 0,-1.68 0.88,-2.48 3.2,-2.96 l 1.92,-0.36 c 1.48,-0.28 1.72,-0.36 2.36,-0.68 z"
             style="font-weight:bold"
             id="path4378" />
          <path
             d="m 353.64566,48.742187 h -5.6 v 29.16 h 5.6 z"
             style="font-weight:bold"
             id="path4380" />
          <path
             d="m 363.80566,64.622187 h 15.88 v -3.28 h -15.88 v -9.32 h 16.48 v -3.28 h -20.2 v 29.16 h 20.92 v -3.28 h -17.2 z"
             id="path4382" />
          <path
             d="m 404.08561,75.942188 c -0.36,0.08 -0.52,0.08 -0.72,0.08 -1.16,0 -1.8,-0.6 -1.8,-1.64 v -12.32 c 0,-3.72 -2.72,-5.72 -7.88,-5.72 -3.08,0 -5.52,0.88 -6.96,2.44 -0.96,1.08 -1.36,2.28 -1.44,4.36 h 3.36 c 0.28,-2.56 1.8,-3.72 4.92,-3.72 3.04,0 4.68,1.12 4.68,3.12 v 0.88 c -0.04,1.44 -0.76,1.96 -3.48,2.32 -4.72,0.6 -5.44,0.76 -6.72,1.28 -2.44,1.04 -3.68,2.88 -3.68,5.6 0,3.8 2.64,6.2 6.88,6.2 2.64,0 4.76,-0.92 7.12,-3.08 0.24,2.16 1.28,3.08 3.44,3.08 0.72,0 1.16,-0.08 2.28,-0.36 z m -5.84,-4.64 c 0,1.119999 -0.32,1.799999 -1.32,2.719999 -1.36,1.24 -3,1.88 -4.96,1.88 -2.6,0 -4.12,-1.239999 -4.12,-3.36 0,-2.2 1.44,-3.32 5.04,-3.84 3.56,-0.48 4.24,-0.64 5.36,-1.16 z"
             id="path4384" />
          <path
             d="m 422.4456,62.782187 c -0.04,-4.119999 -2.76,-6.44 -7.6,-6.44 -4.88,0 -8.04,2.52 -8.04,6.4 0,3.28 1.68,4.840001 6.64,6.04 l 3.12,0.76 c 2.32,0.56 3.24,1.4 3.24,2.88 0,2 -1.96,3.32 -4.88,3.32 -1.8,0 -3.32,-0.52 -4.16,-1.4 -0.52,-0.6 -0.76,-1.2 -0.96,-2.679999 h -3.52 c 0.16,4.839999 2.88,7.159999 8.36,7.159999 5.28,0 8.64,-2.6 8.64,-6.64 0,-3.12 -1.76,-4.84 -5.92,-5.84 l -3.2,-0.759999 c -2.72,-0.640001 -3.88,-1.520001 -3.88,-3.000001 0,-1.96 1.72,-3.16 4.44,-3.16 2.68,0 4.12,1.16 4.2,3.36 z"
             id="path4386" />
          <path
             d="m 445.44552,68.542187 c 0,-3.2 -0.24,-5.12 -0.84,-6.68 -1.36,-3.44 -4.56,-5.52 -8.48,-5.52 -5.84,0 -9.6,4.44 -9.6,11.36 0,6.92 3.6,11.12 9.52,11.12 4.8,0 8.12,-2.72 8.96,-7.28 h -3.36 c -0.92,2.760001 -2.8,4.2 -5.48,4.2 -2.12,0 -3.92,-0.96 -5.04,-2.72 -0.8,-1.2 -1.08,-2.4 -1.12,-4.48 z m -15.36,-2.72 c 0.28,-3.88 2.64,-6.4 6,-6.4 3.4,0 5.76,2.64 5.76,6.4 z"
             id="path4388" />
        </g>
      </g>
    </g>
  </g>
</svg>
